<svg width="145" height="230" viewBox="0 0 145 230" fill="none" xmlns="http://www.w3.org/2000/svg">
<g filter="url(#filter0_d_336_3055)">
<path fill-rule="evenodd" clip-rule="evenodd" d="M77.2901 213.519C77.2901 213.519 82.1373 163.663 112.572 129.131C143.005 94.5989 138.495 61.1844 138.495 61.1844C138.495 61.1844 137.677 44.1789 125.869 27.9435C116.381 14.8973 97.5211 1.89937 72.3653 2.00059C15.9041 2.22775 7.39062 53.7063 7.39062 53.7063C7.39062 53.7063 -1.90559 87.4911 27.5732 123.091C57.0494 158.69 65.071 186.943 67.07 213.519C67.07 213.519 72.3908 226.54 77.2901 213.519Z" fill="#DC4B3E"/>
</g>
<path d="M72.5442 121.446C101.761 121.446 125.446 97.7609 125.446 68.544C125.446 39.3271 101.761 15.6421 72.5442 15.6421C43.3273 15.6421 19.6423 39.3271 19.6423 68.544C19.6423 97.7609 43.3273 121.446 72.5442 121.446Z" fill="#E6E7E8" stroke="#ECF0F1" stroke-miterlimit="10"/>
<path d="M85.976 84.9621H61.539L53.1404 63.0717L73.2066 48.478L93.2728 63.0717L85.976 84.9621Z" fill="#38454F"/>
<path d="M59.4918 17.4481L54.9368 23.997L73.2062 35.7084L89.624 23.1542L85.4903 17.2438C81.4497 16.2277 77.2249 15.6768 72.876 15.6494C68.248 15.6786 63.7641 16.3043 59.4918 17.4481Z" fill="#435159"/>
<path d="M109.016 37.5327L106.042 57.599L124.297 68.6846L125.397 66.585C125.016 56.1524 121.619 46.4932 116.046 38.4521L109.016 37.5327Z" fill="#435159"/>
<path d="M111.155 104.689L111.514 95.9145L91.4482 95.9072L82.7048 115.253L90.268 118.394C98.3054 115.536 105.442 110.789 111.155 104.689Z" fill="#435159"/>
<path d="M56.7889 95.9072L34.8984 95.9145L35.2888 105.415C40.9694 111.256 47.9853 115.786 55.8476 118.516L63.7081 115.253L56.7889 95.9072Z" fill="#435159"/>
<path d="M40.3704 57.599L37.397 37.5327L29.6368 38.547C24.3102 46.2688 20.9846 55.4719 20.4045 65.4157L22.1175 68.6846L40.3704 57.599Z" fill="#435159"/>
<defs>
<filter id="filter0_d_336_3055" x="0" y="0" width="144.73" height="229.306" filterUnits="userSpaceOnUse" color-interpolation-filters="sRGB">
<feFlood flood-opacity="0" result="BackgroundImageFix"/>
<feColorMatrix in="SourceAlpha" type="matrix" values="0 0 0 0 0 0 0 0 0 0 0 0 0 0 0 0 0 0 127 0" result="hardAlpha"/>
<feOffset dy="4"/>
<feGaussianBlur stdDeviation="3"/>
<feColorMatrix type="matrix" values="0 0 0 0 0 0 0 0 0 0 0 0 0 0 0 0 0 0 0.2 0"/>
<feBlend mode="normal" in2="BackgroundImageFix" result="effect1_dropShadow_336_3055"/>
<feBlend mode="normal" in="SourceGraphic" in2="effect1_dropShadow_336_3055" result="shape"/>
</filter>
</defs>
</svg>
