<?xml version="1.0" encoding="utf-8"?>
<svg viewBox="18.824 13.919 109.557 99.141" xmlns="http://www.w3.org/2000/svg">
  <defs>
    <filter id="filter0_f_372_1425" x="0.494848" y="14.825" width="146.567" height="124.14" filterUnits="userSpaceOnUse" color-interpolation-filters="sRGB">
      <feFlood flood-opacity="0" result="BackgroundImageFix"/>
      <feBlend mode="normal" in="SourceGraphic" in2="BackgroundImageFix" result="shape"/>
      <feGaussianBlur stdDeviation="13.3434" result="effect1_foregroundBlur_372_1425"/>
    </filter>
    <linearGradient id="paint0_linear_372_1425" x1="109.064" y1="43.7674" x2="99.4978" y2="74.1368" gradientUnits="userSpaceOnUse" gradientTransform="matrix(1, 0, 0, 1, -0.352381, 13.919048)">
      <stop stop-color="#A0A8FF"/>
      <stop offset="1" stop-color="#FE9C67"/>
    </linearGradient>
    <linearGradient id="paint1_linear_372_1425" x1="30.5957" y1="73.1503" x2="34.7816" y2="21.1933" gradientUnits="userSpaceOnUse" gradientTransform="matrix(1, 0, 0, 1, -0.352381, 13.919048)">
      <stop stop-color="#7B92D8"/>
      <stop offset="0.0767" stop-color="#788FD8"/>
      <stop offset="1" stop-color="#6780EE"/>
    </linearGradient>
    <linearGradient id="paint2_linear_372_1425" x1="110.629" y1="43.1959" x2="106.189" y2="70.9369" gradientUnits="userSpaceOnUse" gradientTransform="matrix(1, 0, 0, 1, -0.352381, 13.919048)">
      <stop stop-color="#2BB947"/>
      <stop offset="1" stop-color="#2EAE40"/>
    </linearGradient>
    <linearGradient id="paint3_linear_372_1425" x1="58.319" y1="24.6123" x2="106.943" y2="67.2792" gradientUnits="userSpaceOnUse" gradientTransform="matrix(1, 0, 0, 1, -0.352381, 13.919048)">
      <stop stop-color="white"/>
      <stop offset="1" stop-color="#C1CBE4"/>
    </linearGradient>
    <linearGradient id="paint4_linear_372_1425" x1="11.7648" y1="77.1139" x2="18.032" y2="1.18903" gradientUnits="userSpaceOnUse" gradientTransform="matrix(1, 0, 0, 1, -0.352381, 13.919048)">
      <stop stop-color="#5BDEB0"/>
      <stop offset="0.0767" stop-color="#28C28B"/>
      <stop offset="1" stop-color="#25C18A"/>
    </linearGradient>
    <linearGradient id="paint5_linear_372_1425" x1="65.4408" y1="38.0415" x2="107.173" y2="21.5954" gradientUnits="userSpaceOnUse" gradientTransform="matrix(1, 0, 0, 1, -0.352381, 13.919048)">
      <stop stop-color="#0B5F41"/>
      <stop offset="1" stop-color="#006C47"/>
    </linearGradient>
    <linearGradient id="paint6_linear_372_1425" x1="90.9057" y1="73.3553" x2="95.7752" y2="73.3553" gradientUnits="userSpaceOnUse" gradientTransform="matrix(1, 0, 0, 1, -0.352381, 13.919048)">
      <stop stop-color="#3453BE"/>
      <stop offset="1" stop-color="#2946AA"/>
    </linearGradient>
  </defs>
  <g opacity="0.248744" filter="url(#filter0_f_372_1425)" transform="matrix(1, 0, 0, 1, -0.176191, -7.4)">
    <rect x="19" y="78.1737" width="98.7766" height="47.4592" rx="23.7296" transform="rotate(-27 19 78.1737)" fill="black"/>
  </g>
  <path d="M 86.927 23.763 L 25.225 59.222 L 56.891 86.339 L 119.281 50.658 L 111.87 32.619 L 86.927 23.763 Z" fill="#F2F2F2"/>
  <path d="M 73.225 82.606 C 72.436 83.099 71.464 83.096 70.679 82.596 L 54.93 72.571 C 54.545 72.326 54.31 71.878 54.311 71.395 C 54.312 70.911 54.551 70.465 54.937 70.223 L 84.852 51.457 C 85.859 50.825 87.102 50.829 88.106 51.467 L 105.4 62.455 L 73.225 82.606 Z" fill="url(#paint0_linear_372_1425)"/>
  <path fill-rule="evenodd" clip-rule="evenodd" d="M 73.303 82.752 C 72.895 83.008 72.431 83.142 71.96 83.142 C 71.482 83.142 71.013 83.004 70.6 82.742 L 54.851 72.717 C 54.419 72.442 54.153 71.938 54.155 71.394 C 54.157 70.85 54.425 70.349 54.859 70.076 L 84.774 51.311 C 85.83 50.649 87.132 50.653 88.185 51.321 L 105.71 62.456 L 73.303 82.752 Z M 73.147 82.459 L 105.09 62.454 L 88.027 51.613 C 87.071 51.007 85.889 51.003 84.93 51.603 L 55.015 70.369 C 54.677 70.581 54.468 70.972 54.467 71.395 C 54.466 71.819 54.672 72.211 55.009 72.425 L 70.758 82.45 C 71.495 82.918 72.407 82.921 73.147 82.459 Z" fill="#314EB5"/>
  <path d="M 107.786 61.064 C 105.529 61.676 109.81 56.654 107.804 55.379 L 89.811 43.946 C 86.358 41.752 82.084 41.737 78.618 43.908 L 35.671 70.808 C 34.737 71.393 34.16 72.473 34.156 73.644 C 34.152 74.814 34.722 75.899 35.653 76.491 C 35.653 76.491 33.548 70.203 35.858 67.663 L 43.762 62.32 L 81.439 38.754 L 85.892 37.316 L 90.41 37.89 L 95.714 40.94 L 113.552 52.504 C 113.552 52.504 115.332 59.019 107.786 61.064 Z" fill="#CAD4F2"/>
  <path d="M 114.163 44.998 L 110.232 49.956 L 114.163 44.998 Z" fill="#808080"/>
  <path d="M 82.681 37.776 L 78.085 29.869 L 82.681 37.776 Z" fill="#808080"/>
  <path d="M 94.388 30.25 L 90.41 37.89 L 94.388 30.25 Z" fill="#808080"/>
  <path d="M 104.712 38.613 L 100.781 43.571 L 104.712 38.613 Z" fill="#808080"/>
  <path d="M 71.529 44.226 L 65.552 38.423 L 71.529 44.226 Z" fill="#808080"/>
  <path d="M 60.365 51.513 L 54.392 45.705 L 60.365 51.513 Z" fill="#808080"/>
  <path d="M 47.866 59.918 L 41.893 54.109 L 47.866 59.918 Z" fill="#808080"/>
  <path d="M 38.168 65.122 L 31.208 60.113 L 38.168 65.122 Z" fill="#808080"/>
  <path d="M 84.011 51.972 L 74.911 42.527 L 84.011 51.972 Z" fill="#808080"/>
  <path d="M 97.94 42.793 L 89.02 52.054 L 97.94 42.793 Z" fill="#808080"/>
  <path d="M 109.217 49.307 L 100.296 58.568 L 109.217 49.307 Z" fill="#808080"/>
  <path d="M 69.945 60.886 L 60.271 51.636 L 69.945 60.886 Z" fill="#808080"/>
  <path d="M 56.148 69.298 L 44.877 61.013 L 56.148 69.298 Z" fill="#808080"/>
  <path fill-rule="evenodd" clip-rule="evenodd" d="M 110.516 56.427 L 67.991 83.022 C 64.082 85.46 59.269 85.44 55.378 82.969 L 37.912 71.852 C 36.838 71.168 36.18 69.916 36.184 68.565 C 36.188 67.214 36.855 65.967 37.934 65.291 L 80.88 38.392 C 84.493 36.134 88.944 36.149 92.544 38.431 L 110.536 49.863 C 111.612 50.547 112.271 51.799 112.267 53.152 C 112.263 54.504 111.596 55.752 110.516 56.427 Z M 110.063 50.74 L 92.071 39.307 C 88.761 37.209 84.67 37.196 81.348 39.271 L 38.402 66.17 C 37.611 66.665 37.123 67.579 37.12 68.568 C 37.117 69.558 37.599 70.475 38.386 70.976 L 55.852 82.094 C 59.453 84.38 63.906 84.398 67.523 82.142 L 110.048 55.547 C 110.839 55.053 111.328 54.139 111.331 53.148 C 111.334 52.158 110.851 51.24 110.063 50.74 Z" fill="#6780ED"/>
  <path fill-rule="evenodd" clip-rule="evenodd" d="M 67.835 82.121 C 65.977 83.281 63.87 83.891 61.726 83.89 C 59.55 83.891 57.413 83.263 55.536 82.069 L 38.07 70.952 C 37.092 70.329 36.492 69.189 36.496 67.958 C 36.5 66.727 37.107 65.592 38.09 64.976 L 80.561 38.374 C 84.371 35.994 89.064 36.01 92.859 38.416 L 110.379 49.547 C 111.358 50.17 111.959 51.311 111.955 52.543 C 111.951 53.774 111.343 54.911 110.36 55.526 L 67.835 82.121 Z M 92.701 38.708 C 90.874 37.548 88.794 36.937 86.677 36.939 C 84.585 36.937 82.529 37.533 80.717 38.667 L 38.245 65.269 C 37.359 65.825 36.811 66.849 36.808 67.959 C 36.804 69.07 37.345 70.099 38.228 70.66 L 55.693 81.777 C 59.391 84.125 63.965 84.144 67.679 81.827 L 110.204 55.233 C 111.091 54.678 111.639 53.653 111.643 52.542 C 111.646 51.43 111.105 50.401 110.221 49.84 L 92.701 38.708 Z" fill="#3454BE"/>
  <path fill-rule="evenodd" clip-rule="evenodd" d="M 67.835 83.405 C 65.977 84.566 63.87 85.176 61.726 85.175 C 59.55 85.176 57.413 84.548 55.536 83.354 L 38.07 72.237 C 37.092 71.614 36.492 70.474 36.496 69.243 C 36.5 68.012 37.107 66.876 38.09 66.261 L 81.036 39.361 C 84.552 37.165 88.883 37.179 92.387 39.4 L 110.379 50.832 C 111.359 51.455 111.959 52.596 111.955 53.827 C 111.951 55.059 111.344 56.196 110.36 56.811 L 67.835 83.405 Z M 111.643 53.826 C 111.647 52.715 111.105 51.686 110.221 51.124 L 92.229 39.692 C 88.823 37.533 84.611 37.519 81.192 39.655 L 38.246 66.554 C 37.359 67.109 36.812 68.134 36.808 69.244 C 36.805 70.355 37.345 71.383 38.228 71.945 L 55.694 83.062 C 59.391 85.41 63.965 85.429 67.679 83.112 L 110.204 56.518 C 111.092 55.963 111.64 54.937 111.643 53.826 Z" fill="url(#paint1_linear_372_1425)"/>
  <path d="M 86.281 51.928 L 55.282 71.318 L 69.786 80.406 L 100.782 61.01 L 86.281 51.928 Z" fill="url(#paint2_linear_372_1425)"/>
  <path fill-rule="evenodd" clip-rule="evenodd" d="M 70.948 78.368 C 70.936 78.375 70.922 78.379 70.909 78.379 C 70.895 78.379 70.882 78.375 70.87 78.368 L 58.613 70.688 C 58.588 70.673 58.574 70.645 58.574 70.615 C 58.574 70.585 58.588 70.557 58.613 70.541 L 85.118 53.966 C 85.142 53.951 85.172 53.951 85.196 53.966 L 97.451 61.641 C 97.475 61.656 97.49 61.684 97.49 61.714 C 97.49 61.744 97.475 61.772 97.451 61.787 L 70.948 78.368 Z M 70.909 78.197 L 97.256 61.714 L 85.157 54.137 L 58.808 70.615 L 70.909 78.197 Z" fill="white"/>
  <path d="M 85.17 69.481 C 85.205 69.481 85.236 69.455 85.245 69.418 C 85.254 69.381 85.239 69.342 85.209 69.323 L 72.952 61.643 C 72.914 61.619 72.867 61.633 72.845 61.674 C 72.824 61.714 72.836 61.766 72.874 61.789 L 85.131 69.469 C 85.142 69.477 85.156 69.481 85.17 69.481 Z" fill="white"/>
  <path fill-rule="evenodd" clip-rule="evenodd" d="M 82.344 67.472 C 81.591 67.902 80.751 68.118 79.9 68.1 C 79.051 68.119 78.211 67.902 77.461 67.469 C 76.801 67.055 76.438 66.5 76.439 65.905 C 76.441 65.305 76.813 64.744 77.487 64.326 C 78.841 63.487 81.032 63.488 82.371 64.328 C 83.031 64.742 83.393 65.298 83.392 65.892 C 83.39 66.493 83.018 67.054 82.344 67.472 Z M 82.293 64.475 C 81.566 64.056 80.754 63.846 79.932 63.864 C 79.108 63.847 78.294 64.056 77.565 64.473 C 76.941 64.859 76.597 65.368 76.595 65.906 C 76.594 66.437 76.929 66.94 77.539 67.323 C 78.835 68.136 80.956 68.137 82.267 67.325 C 82.89 66.938 83.235 66.429 83.236 65.892 C 83.237 65.361 82.902 64.857 82.293 64.475 Z" fill="white"/>
  <path d="M 69.482 72.893 C 69.496 72.893 69.509 72.889 69.521 72.881 C 69.825 72.735 70.032 72.421 70.06 72.061 C 70.035 71.707 69.833 71.396 69.534 71.249 C 68.761 70.826 67.848 70.825 67.074 71.248 C 67.037 71.271 67.025 71.322 67.046 71.363 C 67.067 71.403 67.114 71.417 67.152 71.395 C 67.877 70.999 68.732 70.999 69.456 71.395 C 69.705 71.513 69.876 71.768 69.904 72.061 C 69.874 72.359 69.698 72.616 69.444 72.735 C 69.413 72.754 69.398 72.793 69.407 72.83 C 69.416 72.867 69.447 72.892 69.482 72.893 Z" fill="white"/>
  <path d="M 67.947 76.524 C 67.962 76.524 67.976 76.519 67.988 76.511 L 71.514 74.164 C 71.537 74.149 71.551 74.121 71.551 74.091 C 71.551 74.061 71.536 74.034 71.512 74.019 L 65.256 70.087 C 65.231 70.072 65.201 70.072 65.177 70.087 L 61.567 72.394 C 61.543 72.409 61.529 72.437 61.529 72.467 C 61.529 72.498 61.544 72.526 61.568 72.541 C 61.593 72.555 61.623 72.555 61.647 72.54 L 65.217 70.258 L 71.321 74.094 L 67.906 76.367 C 67.877 76.387 67.863 76.426 67.872 76.462 C 67.882 76.499 67.912 76.524 67.947 76.524 Z" fill="white"/>
  <path d="M 66.917 75.859 C 66.931 75.859 66.945 75.854 66.958 75.846 L 69.321 74.273 C 69.345 74.257 69.359 74.229 69.358 74.2 C 69.358 74.17 69.343 74.142 69.319 74.127 L 65.125 71.492 C 65.101 71.476 65.071 71.477 65.046 71.492 L 62.627 73.038 C 62.603 73.053 62.588 73.081 62.588 73.112 C 62.588 73.142 62.604 73.17 62.628 73.185 C 62.652 73.2 62.682 73.199 62.706 73.184 L 65.086 71.663 L 69.128 74.203 L 66.876 75.702 C 66.846 75.722 66.832 75.761 66.842 75.797 C 66.851 75.834 66.882 75.859 66.917 75.859 Z" fill="white"/>
  <path d="M 90.628 62.045 C 90.642 62.045 90.655 62.041 90.667 62.034 L 94.274 59.798 C 94.298 59.783 94.313 59.755 94.314 59.725 C 94.314 59.694 94.299 59.666 94.275 59.651 C 94.25 59.635 94.22 59.635 94.196 59.651 L 90.629 61.863 L 84.167 57.82 L 87.663 55.624 C 87.687 55.608 87.702 55.58 87.702 55.55 C 87.702 55.52 87.687 55.492 87.663 55.477 C 87.639 55.462 87.609 55.462 87.585 55.477 L 83.972 57.747 C 83.948 57.763 83.933 57.791 83.933 57.821 C 83.933 57.851 83.948 57.879 83.972 57.894 L 90.589 62.034 C 90.601 62.041 90.615 62.045 90.628 62.045 Z" fill="white"/>
  <path d="M 90.611 60.512 C 90.625 60.512 90.638 60.509 90.65 60.501 L 92.997 59.047 C 93.021 59.032 93.036 59.004 93.037 58.973 C 93.037 58.943 93.022 58.915 92.998 58.899 C 92.973 58.884 92.943 58.884 92.919 58.899 L 90.612 60.33 L 86.462 57.734 L 88.696 56.33 C 88.733 56.307 88.746 56.255 88.724 56.215 C 88.702 56.174 88.655 56.16 88.617 56.184 L 86.266 57.661 C 86.242 57.676 86.228 57.704 86.228 57.734 C 86.228 57.765 86.243 57.793 86.267 57.808 L 90.572 60.501 C 90.584 60.509 90.598 60.512 90.611 60.512 Z" fill="white"/>
  <path d="M 87.464 61.093 C 87.892 61.102 88.316 60.993 88.695 60.776 C 88.72 60.762 88.735 60.734 88.735 60.703 C 88.736 60.673 88.721 60.644 88.696 60.629 C 88.672 60.614 88.642 60.614 88.618 60.629 C 87.893 61.025 87.038 61.025 86.313 60.628 C 86.064 60.51 85.893 60.256 85.865 59.963 C 85.896 59.665 86.072 59.408 86.326 59.29 C 86.35 59.275 86.366 59.247 86.366 59.216 C 86.366 59.186 86.351 59.158 86.327 59.142 C 86.303 59.127 86.273 59.127 86.248 59.143 C 85.945 59.289 85.738 59.603 85.709 59.962 C 85.735 60.317 85.936 60.628 86.235 60.775 C 86.613 60.993 87.036 61.102 87.464 61.093 Z" fill="white"/>
  <path d="M 56.074 73.3 L 43.408 79.271 L 56.074 73.3 Z" fill="#808080"/>
  <path d="M 124.726 51.734 L 117.357 55.682 L 109.118 50.504 L 67.318 76.646 C 63.301 79.158 58.35 79.138 54.351 76.592 L 38.951 66.79 L 29.977 72.419 L 23.883 70.204 L 23.959 82.532 L 23.968 82.535 C 24.042 86.166 25.864 89.491 28.77 91.297 L 46.009 102.146 C 54.863 107.718 65.786 107.731 74.651 102.179 L 120.448 73.498 C 123.074 71.874 124.688 68.84 124.672 65.562 L 124.726 51.734 Z" fill="url(#paint3_linear_372_1425)"/>
  <path opacity="0.118629" d="M 60.356 102.768 C 65.401 102.772 70.358 101.336 74.729 98.602 L 120.526 69.921 C 123.45 68.113 125.121 64.609 124.792 60.975 L 124.481 61.006 C 124.798 64.508 123.188 67.885 120.37 69.628 L 74.573 98.309 C 65.753 103.814 54.896 103.802 46.087 98.277 L 28.848 87.427 C 25.529 85.378 23.686 81.352 24.185 77.246 L 23.876 77.205 C 23.36 81.446 25.264 85.604 28.691 87.72 L 45.931 98.57 C 50.314 101.324 55.29 102.772 60.356 102.768 Z" fill="black"/>
  <path opacity="0.118629" d="M 60.203 100.144 C 65.248 100.148 70.205 98.712 74.576 95.979 L 120.373 67.297 C 123.297 65.489 124.968 61.985 124.639 58.351 L 124.329 58.382 C 124.646 61.884 123.035 65.261 120.217 67.004 L 74.42 95.686 C 65.6 101.19 54.744 101.178 45.935 95.653 L 28.695 84.803 C 25.377 82.754 23.533 78.729 24.033 74.622 L 23.723 74.581 C 23.207 78.822 25.111 82.98 28.539 85.096 L 45.778 95.946 C 50.161 98.699 55.138 100.148 60.203 100.144 Z" fill="black"/>
  <path opacity="0.118629" d="M 60.051 97.52 C 65.096 97.524 70.053 96.088 74.423 93.354 L 120.221 64.673 C 123.145 62.865 124.816 59.361 124.487 55.727 L 124.176 55.758 C 124.493 59.26 122.883 62.637 120.064 64.38 L 74.267 93.061 C 65.448 98.567 54.591 98.554 45.782 93.029 L 28.543 82.18 C 25.224 80.13 23.381 76.104 23.88 71.998 L 23.571 71.957 C 23.055 76.198 24.959 80.356 28.386 82.472 L 45.625 93.322 C 50.009 96.075 54.985 97.524 60.051 97.52 Z" fill="black"/>
  <path d="M 106.04 14.716 L 106.04 33.691 L 118.324 47.815 L 118.324 22.405 L 106.04 14.716 Z" fill="white"/>
  <path d="M 118.324 22.409 L 118.324 58.311 L 119.593 57.522 L 119.593 21.591 L 118.324 22.409 Z" fill="#3352BF"/>
  <path d="M 106.04 14.716 L 107.323 13.919 L 119.593 21.591 L 118.324 22.409 L 106.04 14.716 Z" fill="#1F72CE"/>
  <path fill-rule="evenodd" clip-rule="evenodd" d="M 127.993 50.924 L 127.993 43.914 L 125.984 44.258 C 125.288 43.332 124.442 42.551 123.488 41.955 L 103.064 29.121 C 93.596 23.172 81.918 23.167 72.446 29.109 L 25.488 58.565 C 24.1 59.428 22.917 60.631 22.034 62.077 L 20.333 62.369 L 20.333 68.33 L 20.336 68.33 C 20.338 72.302 22.299 75.969 25.476 77.943 L 43.904 89.541 C 53.368 95.497 65.046 95.51 74.521 89.576 L 123.477 58.916 C 126.143 57.269 127.842 54.252 127.978 50.927 L 127.993 50.924 Z M 94.041 30.285 L 112.75 42.173 C 113.745 42.805 114.355 43.964 114.351 45.215 C 114.347 46.466 113.73 47.62 112.731 48.245 L 67.318 76.646 C 63.301 79.158 58.35 79.137 54.351 76.592 L 35.699 64.72 C 34.705 64.087 34.096 62.929 34.1 61.679 C 34.104 60.429 34.72 59.275 35.718 58.65 L 81.075 30.241 C 85.09 27.726 90.04 27.743 94.041 30.285 Z" fill="black"/>
  <path opacity="0.401111" fill-rule="evenodd" clip-rule="evenodd" d="M 74.586 84.266 L 123.542 53.607 C 126.334 51.858 128.055 48.627 128.058 45.129 C 128.06 41.632 126.343 38.398 123.553 36.645 L 103.129 23.811 C 93.66 17.862 81.983 17.857 72.511 23.799 L 25.553 53.256 C 18.686 57.564 18.679 68.315 25.541 72.634 L 43.969 84.231 C 53.433 90.187 65.11 90.201 74.586 84.266 Z M 93.953 30.39 L 112.662 42.279 C 113.658 42.911 114.267 44.07 114.263 45.321 C 114.259 46.571 113.642 47.726 112.643 48.35 L 67.23 76.751 C 63.213 79.264 58.262 79.243 54.263 76.698 L 35.611 64.825 C 34.617 64.193 34.008 63.034 34.012 61.784 C 34.016 60.534 34.633 59.381 35.631 58.756 L 80.987 30.347 C 85.002 27.832 89.953 27.849 93.953 30.39 Z" fill="#E6E6E6"/>
  <path fill-rule="evenodd" clip-rule="evenodd" d="M 74.521 83.822 L 123.477 53.162 C 126.269 51.414 127.99 48.183 127.993 44.685 C 127.995 41.188 126.278 37.954 123.488 36.201 L 103.064 23.367 C 93.596 17.418 81.918 17.413 72.446 23.355 L 25.488 52.811 C 18.621 57.12 18.614 67.871 25.476 72.189 L 43.904 83.787 C 53.368 89.743 65.046 89.756 74.521 83.822 Z M 94.041 30.285 L 112.75 42.173 C 113.745 42.805 114.355 43.964 114.351 45.215 C 114.347 46.466 113.73 47.62 112.731 48.245 L 67.318 76.646 C 63.301 79.158 58.35 79.137 54.351 76.592 L 35.699 64.72 C 34.705 64.087 34.096 62.929 34.1 61.679 C 34.104 60.429 34.72 59.275 35.718 58.65 L 81.075 30.241 C 85.09 27.726 90.04 27.743 94.041 30.285 Z" fill="url(#paint4_linear_372_1425)"/>
  <path opacity="0.173014" d="M 89.544 28.546 C 89.704 28.574 89.864 28.599 90.022 28.633 L 100.497 21.927 C 100.381 21.87 100.265 21.813 100.148 21.757 L 89.544 28.546 Z" fill="white"/>
  <path opacity="0.173014" d="M 98.213 32.936 L 98.521 33.131 L 108.469 26.763 L 108.159 26.568 L 98.213 32.936 Z" fill="white"/>
  <path opacity="0.173014" d="M 115.994 31.492 L 106.005 37.887 L 106.313 38.082 L 116.303 31.686 L 115.994 31.492 Z" fill="white"/>
  <path opacity="0.173014" d="M 123.816 36.423 L 113.603 42.962 C 113.67 43.05 113.734 43.139 113.793 43.233 L 124.108 36.629 C 124.013 36.558 123.914 36.491 123.816 36.423 Z" fill="white"/>
  <path opacity="0.173014" d="M 34.862 63.949 C 34.793 63.861 34.728 63.772 34.669 63.679 L 23.651 70.733 L 23.655 70.741 C 23.734 70.819 23.815 70.894 23.896 70.969 L 34.862 63.949 Z" fill="white"/>
  <path opacity="0.173014" d="M 47.46 85.701 L 58.94 78.351 C 58.78 78.325 58.621 78.297 58.462 78.264 L 47.107 85.534 C 47.225 85.59 47.342 85.647 47.46 85.701 Z" fill="white"/>
  <path d="M 31.547 76.01 L 42.46 69.024 L 42.152 68.828 L 31.237 75.816 L 31.547 76.01 Z" fill="#F2F2F2"/>
  <path opacity="0.173014" d="M 50.245 73.979 L 49.937 73.783 L 39.067 80.742 L 39.376 80.937 L 50.245 73.979 Z" fill="white"/>
  <path fill-rule="evenodd" clip-rule="evenodd" d="M 68.614 79.198 L 115.668 49.729 C 117.228 48.752 118.192 46.948 118.198 44.993 C 118.203 43.038 117.25 41.228 115.695 40.24 L 95.736 27.557 C 90.865 24.462 84.838 24.444 79.952 27.509 L 32.96 56.987 C 31.401 57.965 30.439 59.768 30.433 61.721 C 30.428 63.675 31.379 65.484 32.933 66.473 L 52.829 79.137 C 57.698 82.236 63.725 82.259 68.614 79.198 Z M 94.041 30.285 L 112.75 42.173 C 113.745 42.805 114.355 43.964 114.351 45.215 C 114.347 46.466 113.73 47.62 112.731 48.245 L 67.318 76.646 C 63.301 79.158 58.35 79.137 54.351 76.592 L 35.699 64.72 C 34.705 64.087 34.096 62.929 34.1 61.679 C 34.104 60.429 34.72 59.275 35.718 58.65 L 81.075 30.241 C 85.09 27.726 90.041 27.743 94.041 30.285 Z" fill="#B1FFE3"/>
  <path d="M 35.718 60.004 L 81.075 31.595 C 85.09 29.08 90.04 29.097 94.041 31.639 L 112.75 43.527 C 113.553 44.031 114.114 44.89 114.285 45.879 C 114.557 44.415 113.94 42.925 112.75 42.173 L 94.041 30.285 C 90.04 27.743 85.09 27.726 81.075 30.241 L 35.718 58.65 C 34.517 59.398 33.892 60.896 34.166 62.369 C 34.338 61.372 34.906 60.507 35.718 60.004 Z" fill="#657DFE"/>
  <path d="M 27.786 63.583 L 27.786 94.742 L 40.07 102.435 L 40.07 71.272 L 27.786 63.583 Z" fill="white"/>
  <path d="M 27.787 63.583 L 29.071 62.786 L 41.341 70.457 L 40.072 71.275 L 27.787 63.583 Z" fill="#1F72CE"/>
  <path d="M 31.988 45.519 L 31.988 48.734 L 34.556 47.123 L 31.988 45.519 Z" fill="#CCCCCC"/>
  <path d="M 31.988 46.535 L 45.65 54.522 L 78.334 33.939 L 78.354 33.49 L 64.746 26.019 L 31.988 46.535 Z" fill="#3453BE"/>
  <path d="M 31.988 45.519 L 45.596 54.006 L 78.354 33.49 L 64.746 25.004 L 31.988 45.519 Z" fill="#046644"/>
  <path d="M 31.988 45.519 L 32.926 46.105 L 32.926 48.146 L 31.988 48.734 L 31.988 45.519 Z" fill="#3453BE"/>
  <path d="M 72.284 71.134 L 84.394 79.096 L 117.504 58.709 L 105.038 50.997 L 72.284 71.134 Z" fill="#5A80DA"/>
  <path d="M 72.284 70.835 L 84.394 78.419 L 117.504 58.032 L 105.038 50.32 L 72.284 70.835 Z" fill="url(#paint5_linear_372_1425)"/>
  <path d="M 84.394 79.518 L 84.394 99.635 L 117.504 78.841 L 117.504 58.032 L 84.394 78.419 L 84.394 79.518 Z" fill="black"/>
  <path d="M 83.233 77.677 L 83.233 84.542 L 81.556 85.631 L 81.556 97.858 L 84.394 99.635 L 84.394 84.542 L 84.394 78.419 L 83.233 77.677 Z" fill="#5A80DA"/>
  <path d="M 41.339 87.904 L 41.339 70.457 L 40.07 71.275 L 40.07 102.438 L 41.339 101.65 L 42.326 101.021 L 42.326 88.53 L 41.339 87.904 Z" fill="#3352BF"/>
  <path d="M 90.555 95.784 L 90.553 87.274 L 95.423 90.457 L 95.423 98.996 L 90.555 95.784 Z" fill="url(#paint6_linear_372_1425)"/>
  <path d="M 117.544 76.883 L 117.544 85.066 L 110.309 89.623 L 108.834 88.671 L 106.851 89.94 L 106.851 91.801 L 106.216 92.2 L 104.583 91.146 L 102.601 92.415 L 102.601 94.478 L 95.423 98.996 L 95.423 90.464 L 117.544 76.883 Z" fill="#3555BF"/>
  <path d="M 89.942 87.659 L 89.942 88.394 L 95.509 92.101 L 118.843 77.449 L 118.843 76.948 L 95.509 91.296 L 89.942 87.659 Z" fill="#768DDA"/>
  <path d="M 89.942 87.659 L 95.509 91.576 L 118.843 76.948 L 113.061 73.171 L 89.942 87.659 Z" fill="white"/>
  <path d="M 108.719 83.294 L 106.961 84.346 L 108.719 83.294 Z" fill="#E6E6E6"/>
  <path d="M 110.992 89.193 L 110.992 83.012 L 116.791 79.355 L 116.791 85.525 L 110.992 89.193 Z" fill="#768DDA"/>
  <path d="M 96.109 98.592 L 96.109 92.41 L 101.909 88.754 L 101.909 94.923 L 96.109 98.592 Z" fill="#768DDA"/>
  <path d="M 110.309 89.623 L 110.309 82.808 L 107.738 84.423 L 107.738 87.981 L 110.309 89.623 Z" fill="#5A80DA"/>
  <path d="M 108.834 83.735 L 108.834 88.671 L 106.851 89.94 L 106.851 84.98 L 108.834 83.735 Z" fill="#2F4EB6"/>
  <path d="M 104.583 86.422 L 104.583 91.146 L 102.601 92.415 L 102.601 87.667 L 104.583 86.422 Z" fill="#2F4EB6"/>
  <path d="M 106.216 92.2 L 104.583 91.146 L 104.583 86.394 L 106.216 85.379 L 106.216 92.2 Z" fill="#5A80DA"/>
  <path d="M 110.863 84.432 L 117.019 80.593 L 116.965 80.491 L 110.808 84.33 L 110.863 84.432 Z" fill="#E6E6E6"/>
  <path d="M 110.863 85.678 L 117.019 81.839 L 116.965 81.736 L 110.808 85.575 L 110.863 85.678 Z" fill="#E6E6E6"/>
  <path d="M 110.863 86.923 L 117.019 83.084 L 116.965 82.982 L 110.808 86.821 L 110.863 86.923 Z" fill="#E6E6E6"/>
  <path d="M 110.863 88.169 L 117.019 84.33 L 116.965 84.228 L 110.808 88.066 L 110.863 88.169 Z" fill="#E6E6E6"/>
  <path d="M 95.958 93.775 L 102.115 89.936 L 102.06 89.834 L 95.903 93.673 L 95.958 93.775 Z" fill="#E6E6E6"/>
  <path d="M 95.958 95.021 L 102.115 91.181 L 102.06 91.079 L 95.903 94.918 L 95.958 95.021 Z" fill="#E6E6E6"/>
  <path d="M 95.958 96.266 L 102.115 92.427 L 102.06 92.324 L 95.903 96.164 L 95.958 96.266 Z" fill="#E6E6E6"/>
  <path d="M 95.958 97.512 L 102.115 93.673 L 102.06 93.57 L 95.903 97.409 L 95.958 97.512 Z" fill="#E6E6E6"/>
  <path d="M 100.289 34.962 L 100.289 39.578 C 100.289 39.781 100.388 39.967 100.55 40.068 L 105.315 43.032 C 105.413 43.093 105.533 43.093 105.63 43.032 C 105.728 42.97 105.788 42.857 105.788 42.735 L 105.788 38.193 C 105.788 37.992 105.689 37.806 105.529 37.705 L 100.737 34.682 C 100.644 34.624 100.531 34.624 100.438 34.682 C 100.346 34.739 100.289 34.846 100.289 34.962 Z" fill="#27419B"/>
  <path d="M 100.074 35.12 L 100.074 39.737 C 100.074 39.939 100.174 40.126 100.336 40.227 L 105.1 43.191 C 105.198 43.252 105.318 43.251 105.416 43.19 C 105.513 43.129 105.574 43.016 105.574 42.894 L 105.574 38.351 C 105.574 38.15 105.475 37.964 105.315 37.863 L 100.522 34.841 C 100.43 34.783 100.316 34.782 100.224 34.84 C 100.131 34.898 100.074 35.005 100.074 35.12 Z" fill="#27419B"/>
</svg>